<?xml version="1.0" encoding="utf-8"?>
<!-- Generator: Adobe Illustrator 15.0.2, SVG Export Plug-In . SVG Version: 6.00 Build 0)  -->
<!DOCTYPE svg PUBLIC "-//W3C//DTD SVG 1.1//EN" "http://www.w3.org/Graphics/SVG/1.1/DTD/svg11.dtd">
<svg version="1.1" id="Layer_1" xmlns="http://www.w3.org/2000/svg" xmlns:xlink="http://www.w3.org/1999/xlink" x="0px" y="0px"
	 width="595.28px" height="841.89px" viewBox="0 0 595.28 841.89" enable-background="new 0 0 595.28 841.89" xml:space="preserve">
<path fill="none" stroke="#010202" stroke-miterlimit="10" d="M179,512c16.922-0.116,24.544-6.143,37.826-14.174
	c0.572-9.628-2.23-22.78,1.349-31.652c9.242,0.745,23.566-1.039,29,8.655c7.593,3.527,23.359,5.342,31.651,1.997
	c1.722-6.837,1.812-15.013,3.174-21.774c2.039-10.12,5.498-20.5,7.052-31.052c1.184-8.04,1.665-19.001,11.948-21.075
	c9.167-1.848,15.777,7.551,21.948,12.35C336.274,425.635,352.629,433.25,370,433c20.828-0.3,15-23.351,15-39
	c0-14.442,0.643-28.536,5.996-41.05C396.52,340.04,405.25,336.519,416,329"/>
</svg>
