<?xml version="1.0" encoding="utf-8"?>
<!-- Generator: Adobe Illustrator 15.0.2, SVG Export Plug-In . SVG Version: 6.00 Build 0)  -->
<!DOCTYPE svg PUBLIC "-//W3C//DTD SVG 1.1//EN" "http://www.w3.org/Graphics/SVG/1.1/DTD/svg11.dtd">
<svg version="1.1" id="Layer_1" xmlns="http://www.w3.org/2000/svg" xmlns:xlink="http://www.w3.org/1999/xlink" x="0px" y="0px"
	 width="595.28px" height="841.89px" viewBox="0 0 595.28 841.89" enable-background="new 0 0 595.28 841.89" xml:space="preserve">
<path fill="none" stroke="#010202" stroke-miterlimit="10" d="M292,599c-0.004-8.365-0.217-14.431,3.722-21.277
	c4.311-7.492,15.333-15.152,12.327-25.468c-3.025-10.372-18.554-10.106-21.101-22.255c-2.3-10.973,6.434-14.385,13.829-18.219
	c27.699-14.359-19.084-14.92-11.797-30.604c1.747-3.759,8.877-6.45,12.047-8.206c9.448-5.236,9.006-2.355,6.944-10.275
	c-2.086-8.013-12.667-14.888-17.995-20.673c-4.491-4.877-11.889-11.669-5.018-18.099c6.771-6.336,21.998-1.667,28.986-8.226
	c7.082-6.647-3.129-10.553-9.831-15.073c-6.857-4.624-30.597-14.538-31.182-25.626c-0.543-10.281,14.935-10.946,17.362-17.703
	c3.703-10.308-13.356-9.153-17.291-16.297c-5.852-10.627,8.317-12.117,11.997-20.977c3.832-9.224-4.96-10.167-4-20.023
	c0.676-6.94,9.06-10.302,14.626-15.952c-2.515-6.959-7.016-10.393-13.55-13.322c5.287-2.069,12.463-4.879,14.673-12
	c1.682-5.419-2.545-9.944-3.749-15.726"/>
</svg>
